<svg width="200" height="200" viewBox="0 0 200 200" fill="none" xmlns="http://www.w3.org/2000/svg">
<path d="M147.833 97.0417C147.167 97.4167 146.5 97.8333 145.791 98.2083C145.291 98.5 144.75 98.7917 144.208 99.0833C131.365 105.949 118.005 111.8 104.25 116.583C91.0378 121.389 77.4865 125.205 63.7081 128C62.9165 128.167 62.1665 128.292 61.4165 128.417C57.8728 123.61 55.2585 118.184 53.7081 112.417C53.619 112.13 53.5494 111.838 53.4998 111.542C52.618 108.068 52.1564 104.501 52.1248 100.917C51.9082 90.2168 55.2829 79.7528 61.7102 71.1957C68.1375 62.6386 77.2467 56.4817 87.5831 53.7083C93.8965 52.0078 100.495 51.6389 106.958 52.625C119.287 54.4385 130.431 60.9663 138.042 70.8333C138.625 71.625 139.208 72.4167 139.792 73.25C141.274 75.4287 142.544 77.7449 143.583 80.1667C144.702 82.5547 145.608 85.0365 146.292 87.5833C147.126 90.6755 147.642 93.8447 147.833 97.0417Z" fill="#FFD787"/>
<path d="M147.833 97.0417C148.096 101.004 147.83 104.983 147.042 108.875C145.585 116.687 142.203 124.013 137.203 130.191C132.203 136.368 125.742 141.201 118.405 144.254C111.067 147.306 103.085 148.481 95.1789 147.673C87.2729 146.865 79.6932 144.099 73.125 139.625C71.8333 138.75 70.5833 137.833 69.375 136.833C66.3804 134.372 63.7068 131.544 61.4167 128.417C62.1667 128.292 62.9167 128.167 63.7083 128C77.4867 125.205 91.038 121.389 104.25 116.583C118.005 111.8 131.365 105.949 144.208 99.0834C144.75 98.7917 145.292 98.5 145.792 98.2083C146.5 97.8333 147.167 97.4167 147.833 97.0417Z" fill="#FFD787"/>
<path d="M98.1812 136.029C98.0362 136.029 97.8917 136.014 97.7498 135.984C89.6285 134.278 81.6885 131.801 74.0375 128.587C73.5281 128.372 73.1249 127.964 72.9166 127.452C72.7083 126.94 72.7119 126.366 72.9267 125.857C73.1414 125.347 73.5497 124.944 74.0617 124.736C74.5738 124.527 75.1476 124.531 75.657 124.746C83.0621 127.858 90.7474 130.256 98.6083 131.907C99.1122 132.013 99.559 132.302 99.8623 132.718C100.166 133.135 100.304 133.648 100.251 134.16C100.198 134.673 99.9571 135.147 99.5748 135.492C99.1926 135.837 98.6961 136.029 98.1812 136.029Z" fill="#FFA866"/>
<path d="M111.287 138.092C111.216 138.092 111.145 138.088 111.072 138.082C110.046 137.976 109.009 137.854 107.967 137.716C106.956 137.588 105.943 137.445 104.934 137.291C104.39 137.206 103.901 136.909 103.575 136.465C103.249 136.021 103.112 135.466 103.195 134.922C103.277 134.377 103.572 133.887 104.014 133.56C104.457 133.232 105.012 133.093 105.556 133.173C106.537 133.319 107.519 133.456 108.502 133.584C109.513 133.716 110.51 133.834 111.499 133.936C112.03 133.99 112.52 134.247 112.868 134.652C113.216 135.058 113.394 135.581 113.367 136.114C113.34 136.648 113.109 137.15 112.722 137.518C112.335 137.886 111.822 138.092 111.287 138.092Z" fill="#FFA866"/>
<path d="M142.255 84.4218C141.851 84.4218 141.455 84.3037 141.117 84.082C133.21 79.0199 124.7 74.9669 115.786 72.0174C115.527 71.93 115.287 71.7925 115.081 71.6126C114.875 71.4327 114.707 71.214 114.585 70.969C114.464 70.7239 114.392 70.4574 114.373 70.1845C114.355 69.9116 114.39 69.6378 114.478 69.3786C114.565 69.1195 114.702 68.8801 114.882 68.6741C115.062 68.4681 115.281 68.2995 115.526 68.178C115.771 68.0566 116.038 67.9845 116.31 67.9661C116.583 67.9476 116.857 67.9831 117.116 68.0705C126.365 71.1315 135.193 75.3391 143.396 80.5949C143.771 80.8405 144.058 81.2009 144.212 81.6223C144.366 82.0438 144.38 82.5038 144.252 82.9339C144.124 83.364 143.86 83.7411 143.5 84.0092C143.14 84.2773 142.703 84.422 142.255 84.4218Z" fill="#FFA866"/>
<path d="M141.272 121.918C141.203 121.918 141.132 121.914 141.058 121.908C131.716 120.868 122.44 119.308 113.271 117.236L111.381 116.819C111.114 116.759 110.862 116.647 110.638 116.489C110.415 116.332 110.224 116.132 110.078 115.9C109.932 115.669 109.832 115.411 109.786 115.142C109.739 114.872 109.746 114.596 109.806 114.329C109.866 114.062 109.979 113.81 110.136 113.586C110.294 113.363 110.494 113.172 110.725 113.026C110.957 112.88 111.214 112.78 111.484 112.734C111.754 112.687 112.03 112.694 112.297 112.754L114.16 113.165C123.175 115.204 132.296 116.738 141.482 117.761C142.013 117.815 142.503 118.071 142.851 118.477C143.199 118.882 143.378 119.405 143.352 119.939C143.325 120.472 143.094 120.975 142.707 121.343C142.32 121.712 141.806 121.917 141.272 121.918Z" fill="#FFA866"/>
<path d="M83.5592 86.2956C83.4142 86.2957 83.2697 86.2807 83.1278 86.2508C74.9998 84.4878 66.7856 83.1486 58.5185 82.2388C58.2462 82.211 57.9821 82.1298 57.7412 82C57.5003 81.8701 57.2874 81.6941 57.1145 81.4819C56.9416 81.2698 56.8123 81.0256 56.7338 80.7635C56.6552 80.5013 56.6291 80.2263 56.6569 79.954C56.6847 79.6818 56.7658 79.4177 56.8957 79.1768C57.0256 78.9359 57.2016 78.7229 57.4138 78.5501C57.6259 78.3772 57.87 78.2478 58.1322 78.1693C58.3944 78.0908 58.6694 78.0647 58.9417 78.0925C67.3549 79.0183 75.7145 80.3806 83.9864 82.1737C84.4903 82.2798 84.937 82.5689 85.2404 82.985C85.5438 83.4011 85.6823 83.9148 85.6292 84.4271C85.5761 84.9393 85.3352 85.4137 84.9529 85.7587C84.5706 86.1038 84.0741 86.295 83.5592 86.2956Z" fill="#FFA866"/>
<path d="M94.2017 123.726C94.0196 123.727 93.8382 123.703 93.6625 123.655C90.6107 122.841 87.6099 121.962 84.6598 121.018C84.3993 120.935 84.1578 120.801 83.949 120.625C83.7403 120.448 83.5684 120.232 83.4431 119.989C83.3179 119.745 83.2417 119.48 83.2191 119.207C83.1964 118.935 83.2276 118.661 83.311 118.4C83.3943 118.14 83.5282 117.898 83.7049 117.689C83.8816 117.481 84.0977 117.309 84.3408 117.183C84.584 117.058 84.8494 116.982 85.122 116.959C85.3945 116.937 85.6689 116.968 85.9294 117.051C88.8082 117.971 91.744 118.831 94.7367 119.631C95.2249 119.761 95.6489 120.065 95.93 120.485C96.211 120.905 96.3299 121.412 96.2644 121.913C96.199 122.414 95.9537 122.874 95.5742 123.208C95.1947 123.541 94.7069 123.726 94.2017 123.726Z" fill="#FFA866"/>
<path d="M111.037 81.9173C110.836 81.9166 110.636 81.8878 110.443 81.8319C104.366 80.0252 98.171 78.5095 92.0268 77.3315C91.7573 77.2807 91.5005 77.1772 91.2711 77.027C91.0417 76.8767 90.8442 76.6826 90.6899 76.4559C90.5356 76.2292 90.4276 75.9742 90.3721 75.7057C90.3165 75.4371 90.3145 75.1602 90.3662 74.8909C90.4179 74.6216 90.5222 74.3651 90.6732 74.1362C90.8242 73.9072 91.0188 73.7104 91.2461 73.5568C91.4733 73.4033 91.7286 73.2961 91.9973 73.2414C92.266 73.1867 92.5429 73.1856 92.8121 73.2381C99.0906 74.4446 105.422 75.9908 111.631 77.8361C112.111 77.9786 112.524 78.2893 112.794 78.7113C113.063 79.1332 113.172 79.6381 113.1 80.1337C113.028 80.6292 112.78 81.0822 112.401 81.4098C112.022 81.7373 111.538 81.9175 111.037 81.9173Z" fill="#FFA866"/>
<path d="M83.4292 75.8708C83.3311 75.871 83.2332 75.8642 83.1362 75.8505C80.8962 75.5352 78.7132 75.2734 76.5871 75.0652C76.0431 75.004 75.545 74.7312 75.2005 74.3057C74.8561 73.8802 74.6929 73.3362 74.7464 72.7914C74.7999 72.2466 75.0657 71.7447 75.4863 71.3943C75.9069 71.0439 76.4485 70.8731 76.994 70.9189C79.175 71.1325 81.4163 71.401 83.7181 71.7245C84.2401 71.7981 84.7148 72.0668 85.0465 72.4765C85.3783 72.8862 85.5424 73.4064 85.5057 73.9323C85.4691 74.4582 85.2344 74.9506 84.8491 75.3104C84.4637 75.6701 83.9563 75.8704 83.4292 75.8708Z" fill="#FFA866"/>
<path opacity="0.66" d="M112.417 146.292C105.774 148.076 98.8236 148.404 92.0421 147.253C85.2606 146.103 78.8077 143.501 73.125 139.625C78.7531 140.135 84.427 139.626 89.875 138.125C96.0474 136.473 101.834 133.621 106.904 129.733C111.974 125.844 116.229 120.995 119.425 115.462C122.621 109.929 124.695 103.821 125.531 97.4859C126.366 91.1511 125.945 84.7138 124.292 78.5417C121.547 68.2199 115.45 59.1032 106.958 52.625C117.868 54.2184 127.893 59.5263 135.343 67.6531C142.793 75.7799 147.212 86.228 147.853 97.2343C148.495 108.241 145.32 119.131 138.864 128.068C132.408 137.005 123.067 143.442 112.417 146.292Z" fill="#686886"/>
<path d="M184.917 84.7083C181.543 87.9539 177.89 90.8958 174 93.5C173.458 93.875 172.917 94.25 172.375 94.5833C164.259 99.9075 155.796 104.682 147.042 108.875C146.292 109.25 145.541 109.625 144.75 110C132.56 115.766 120.085 120.911 107.375 125.417C95 129.792 83.0417 133.417 71.9167 136.208C71.0417 136.417 70.2083 136.625 69.375 136.833C36.6667 144.792 12.2083 145.375 9.20833 136.958C6.33333 128.917 23.9583 114.792 52.125 100.917C52.1566 104.501 52.6182 108.068 53.5 111.542C42.2083 117.958 35.7917 123.667 36.9583 127.083C38.2083 130.625 47.5833 130.917 61.4167 128.417C62.1667 128.292 62.9167 128.167 63.7083 128C77.4867 125.205 91.038 121.389 104.25 116.583C118.005 111.8 131.365 105.949 144.208 99.0834C144.75 98.7917 145.292 98.5 145.792 98.2083C146.5 97.8333 147.167 97.4167 147.834 97.0417C150.489 95.5264 153.062 93.8713 155.542 92.0833C157.718 90.594 159.693 88.8294 161.417 86.8333C162.917 85.0414 163.5 83.5 163.042 82.25C162.208 79.9583 158.042 79.0417 151.5 79.375C150.333 79.4167 149.083 79.5 147.75 79.625C146.458 79.75 145.042 79.9583 143.583 80.1667C142.124 76.8411 140.263 73.7067 138.042 70.8333C140.417 70.3333 142.667 69.875 144.917 69.4167C149.542 68.5417 153.958 67.8336 158.042 67.3333C162.022 66.8076 166.028 66.5016 170.042 66.4167C181.625 66 189.208 67.9583 190.792 72.4167C191.958 75.6667 189.75 79.875 184.917 84.7083Z" fill="#FF8163"/>
<path d="M184.917 84.7083C181.543 87.9539 177.89 90.8958 174 93.5C173.458 93.875 172.917 94.25 172.375 94.5833L144.208 99.0834C144.75 98.7917 145.292 98.5 145.792 98.2083C146.5 97.8333 147.167 97.4167 147.834 97.0417C150.489 95.5264 153.062 93.8713 155.542 92.0833C157.718 90.594 159.693 88.8294 161.417 86.8333C162.917 85.0414 163.5 83.5 163.042 82.25C162.208 79.9583 158.042 79.0417 151.5 79.375C150.333 79.4167 149.083 79.5 147.75 79.625C146.458 79.75 145.042 79.9583 143.583 80.1667C142.544 77.7449 141.274 75.4287 139.792 73.25L144.917 69.4167C149.542 68.5417 153.958 67.8336 158.042 67.3333C162.022 66.8076 166.028 66.5016 170.042 66.4167C181.625 66 189.208 67.9583 190.792 72.4167C191.958 75.6667 189.75 79.875 184.917 84.7083Z" fill="#666666"/>
</svg>
